<?xml version='1.0' encoding='utf-8'?>
<svg height="161.30mm" viewBox="0.0 0.0 543.01 161.30" width="543.01mm" xmlns="http://www.w3.org/2000/svg" xmlns:cc="http://creativecommons.org/ns#" xmlns:dc="http://purl.org/dc/elements/1.1/" xmlns:inkscape="http://www.inkscape.org/namespaces/inkscape" xmlns:rdf="http://www.w3.org/1999/02/22-rdf-syntax-ns#" xmlns:svg="http://www.w3.org/2000/svg" xmlns:xlink="http://www.w3.org/1999/xlink">
<!--
Console2 - Console with slanted panel and service hatches



This box is designed as a housing for electronic projects. It has hatches that can be re-opened with simple tools. It intentionally cannot be opened with bare hands - if build with thin enough material.

#### Caution
There is a chance that the latches of the back wall or the back wall itself interfere with the front panel or it's mounting frame/lips. The generator does not check for this. So depending on the variant chosen you might need to make the box deeper (increase y parameter) or the panel angle steeper (increase angle parameter) until there is enough room.

It's also possible that the frame of the panel interferes with the floor if the hi parameter is too small.

#### Assembly instructions
The main body is easy to assemble by starting with the floor and then adding the four walls and (if present) the top piece.

If the back wall is removable you need to add the lips and latches. The U-shaped clamps holding the latches in place need to be clued in place without also gluing the latches themselves. Make sure the springs on the latches point inwards and the angled ends point to the side walls as shown here:

![Back wall details](static/samples/Console2-backwall-detail.jpg)

If the panel is removable you need to add the springs with the tabs to the side lips. This photo shows the variant which has the panel glued to the frame:

![Back wall details](static/samples/Console2-panel-detail.jpg)

If space is tight you may consider not gluing the cross pieces in place and remove them after the glue-up. This may prevent the latches of the back wall and the panel from interfering with each other.

The variant using finger joints only has the two side lips without the cross bars.

#### Re-Opening

The latches at the back wall lock in place when closed. To open them they need to be pressed in and can then be moved aside.

To remove the panel you have to press in the four tabs at the side. It is easiest to push them in and then pull the panel up a little bit so the tabs stay in.



Created with Boxes.py (https://festi.info/boxes.py)
Creation date: 2024-03-07 06:12:16
Command line (remove spaces between dashes): boxes Console2 - -x=135 - -y=78 - -front_height=20 - -angle=10 - -removable_backwall=0 - -reference=0
Url: http://festi.info/boxes.py/Console2?FingerJoint_angle=90.0&FingerJoint_style=rectangular&FingerJoint_surroundingspaces=0.5&FingerJoint_bottom_lip=0.0&FingerJoint_edge_width=1.0&FingerJoint_extra_length=0.0&FingerJoint_finger=2.0&FingerJoint_play=0.0&FingerJoint_space=2.0&FingerJoint_width=1.0&Stackable_angle=60&Stackable_bottom_stabilizers=0.0&Stackable_height=2.0&Stackable_holedistance=1.0&Stackable_width=4.0&x=135&y=78&h=100&bottom_edge=s&outside=0&front_height=20&angle=10&removable_backwall=0&removable_panel=0&removable_panel=1&glued_panel=0&glued_panel=1&thickness=3.0&format=svg&tabs=0.0&qr_code=0&debug=0&labels=0&labels=1&reference=0&inner_corners=loop&burn=0.1&language=en&render=2
Url short: http://festi.info/boxes.py/Console2?x=135&y=78&front_height=20&angle=10&removable_backwall=0&reference=0
SettingsUrl: http://festi.info/boxes.py/Console2?FingerJoint_angle=90.0&FingerJoint_style=rectangular&FingerJoint_surroundingspaces=0.5&FingerJoint_bottom_lip=0.0&FingerJoint_edge_width=1.0&FingerJoint_extra_length=0.0&FingerJoint_finger=2.0&FingerJoint_play=0.0&FingerJoint_space=2.0&FingerJoint_width=1.0&Stackable_angle=60&Stackable_bottom_stabilizers=0.0&Stackable_height=2.0&Stackable_holedistance=1.0&Stackable_width=4.0&x=135&y=78&h=100&bottom_edge=s&outside=0&front_height=20&angle=10&removable_backwall=0&removable_panel=0&removable_panel=1&glued_panel=0&glued_panel=1&thickness=3.0&format=svg&tabs=0.0&qr_code=0&debug=0&labels=0&labels=1&reference=0&inner_corners=loop&burn=0.1&language=en&render=2
SettingsUrl short: http://festi.info/boxes.py/Console2?x=135&y=78&front_height=20&angle=10&removable_backwall=0&reference=0
-->
<title>Console2</title>
<metadata>
<rdf:RDF><cc:Work>
<dc:title>Box - Console2</dc:title>
<dc:date>2024-03-07 06:12:16</dc:date>
<dc:source>http://festi.info/boxes.py/Console2?FingerJoint_angle=90.0&amp;FingerJoint_style=rectangular&amp;FingerJoint_surroundingspaces=0.5&amp;FingerJoint_bottom_lip=0.0&amp;FingerJoint_edge_width=1.0&amp;FingerJoint_extra_length=0.0&amp;FingerJoint_finger=2.0&amp;FingerJoint_play=0.0&amp;FingerJoint_space=2.0&amp;FingerJoint_width=1.0&amp;Stackable_angle=60&amp;Stackable_bottom_stabilizers=0.0&amp;Stackable_height=2.0&amp;Stackable_holedistance=1.0&amp;Stackable_width=4.0&amp;x=135&amp;y=78&amp;h=100&amp;bottom_edge=s&amp;outside=0&amp;front_height=20&amp;angle=10&amp;removable_backwall=0&amp;removable_panel=0&amp;removable_panel=1&amp;glued_panel=0&amp;glued_panel=1&amp;thickness=3.0&amp;format=svg&amp;tabs=0.0&amp;qr_code=0&amp;debug=0&amp;labels=0&amp;labels=1&amp;reference=0&amp;inner_corners=loop&amp;burn=0.1&amp;language=en&amp;render=2</dc:source>
<dc:source>http://festi.info/boxes.py/Console2?x=135&amp;y=78&amp;front_height=20&amp;angle=10&amp;removable_backwall=0&amp;reference=0</dc:source>
<dc:description>Console with slanted panel and service hatches


This box is designed as a housing for electronic projects. It has hatches that can be re-opened with simple tools. It intentionally cannot be opened with bare hands - if build with thin enough material.

#### Caution
There is a chance that the latches of the back wall or the back wall itself interfere with the front panel or it's mounting frame/lips. The generator does not check for this. So depending on the variant chosen you might need to make the box deeper (increase y parameter) or the panel angle steeper (increase angle parameter) until there is enough room.

It's also possible that the frame of the panel interferes with the floor if the hi parameter is too small.

#### Assembly instructions
The main body is easy to assemble by starting with the floor and then adding the four walls and (if present) the top piece.

If the back wall is removable you need to add the lips and latches. The U-shaped clamps holding the latches in place need to be clued in place without also gluing the latches themselves. Make sure the springs on the latches point inwards and the angled ends point to the side walls as shown here:

![Back wall details](static/samples/Console2-backwall-detail.jpg)

If the panel is removable you need to add the springs with the tabs to the side lips. This photo shows the variant which has the panel glued to the frame:

![Back wall details](static/samples/Console2-panel-detail.jpg)

If space is tight you may consider not gluing the cross pieces in place and remove them after the glue-up. This may prevent the latches of the back wall and the panel from interfering with each other.

The variant using finger joints only has the two side lips without the cross bars.

#### Re-Opening

The latches at the back wall lock in place when closed. To open them they need to be pressed in and can then be moved aside.

To remove the panel you have to press in the four tabs at the side. It is easiest to push them in and then pull the panel up a little bit so the tabs stay in.


Created with Boxes.py (https://festi.info/boxes.py)
Command line: boxes Console2 --FingerJoint_angle=90.0 --FingerJoint_style=rectangular --FingerJoint_surroundingspaces=0.5 --FingerJoint_bottom_lip=0.0 --FingerJoint_edge_width=1.0 --FingerJoint_extra_length=0.0 --FingerJoint_finger=2.0 --FingerJoint_play=0.0 --FingerJoint_space=2.0 --FingerJoint_width=1.0 --Stackable_angle=60 --Stackable_bottom_stabilizers=0.0 --Stackable_height=2.0 --Stackable_holedistance=1.0 --Stackable_width=4.0 --x=135 --y=78 --h=100 --bottom_edge=s --outside=0 --front_height=20 --angle=10 --removable_backwall=0 --removable_panel=0 --removable_panel=1 --glued_panel=0 --glued_panel=1 --thickness=3.0 --format=svg --tabs=0.0 --qr_code=0 --debug=0 --labels=0 --labels=1 --reference=0 --inner_corners=loop --burn=0.1
Command line short: boxes Console2 --x=135 --y=78 --front_height=20 --angle=10 --removable_backwall=0 --reference=0
Url: http://festi.info/boxes.py/Console2?FingerJoint_angle=90.0&amp;FingerJoint_style=rectangular&amp;FingerJoint_surroundingspaces=0.5&amp;FingerJoint_bottom_lip=0.0&amp;FingerJoint_edge_width=1.0&amp;FingerJoint_extra_length=0.0&amp;FingerJoint_finger=2.0&amp;FingerJoint_play=0.0&amp;FingerJoint_space=2.0&amp;FingerJoint_width=1.0&amp;Stackable_angle=60&amp;Stackable_bottom_stabilizers=0.0&amp;Stackable_height=2.0&amp;Stackable_holedistance=1.0&amp;Stackable_width=4.0&amp;x=135&amp;y=78&amp;h=100&amp;bottom_edge=s&amp;outside=0&amp;front_height=20&amp;angle=10&amp;removable_backwall=0&amp;removable_panel=0&amp;removable_panel=1&amp;glued_panel=0&amp;glued_panel=1&amp;thickness=3.0&amp;format=svg&amp;tabs=0.0&amp;qr_code=0&amp;debug=0&amp;labels=0&amp;labels=1&amp;reference=0&amp;inner_corners=loop&amp;burn=0.1&amp;language=en&amp;render=2
Url short: http://festi.info/boxes.py/Console2?x=135&amp;y=78&amp;front_height=20&amp;angle=10&amp;removable_backwall=0&amp;reference=0
SettingsUrl: http://festi.info/boxes.py/Console2?FingerJoint_angle=90.0&amp;FingerJoint_style=rectangular&amp;FingerJoint_surroundingspaces=0.5&amp;FingerJoint_bottom_lip=0.0&amp;FingerJoint_edge_width=1.0&amp;FingerJoint_extra_length=0.0&amp;FingerJoint_finger=2.0&amp;FingerJoint_play=0.0&amp;FingerJoint_space=2.0&amp;FingerJoint_width=1.0&amp;Stackable_angle=60&amp;Stackable_bottom_stabilizers=0.0&amp;Stackable_height=2.0&amp;Stackable_holedistance=1.0&amp;Stackable_width=4.0&amp;x=135&amp;y=78&amp;h=100&amp;bottom_edge=s&amp;outside=0&amp;front_height=20&amp;angle=10&amp;removable_backwall=0&amp;removable_panel=0&amp;removable_panel=1&amp;glued_panel=0&amp;glued_panel=1&amp;thickness=3.0&amp;format=svg&amp;tabs=0.0&amp;qr_code=0&amp;debug=0&amp;labels=0&amp;labels=1&amp;reference=0&amp;inner_corners=loop&amp;burn=0.1&amp;language=en&amp;render=2
SettingsUrl short: http://festi.info/boxes.py/Console2?x=135&amp;y=78&amp;front_height=20&amp;angle=10&amp;removable_backwall=0&amp;reference=0
</dc:description>
</cc:Work></rdf:RDF></metadata>
<g id="p-0" style="fill:none;stroke-linecap:round;stroke-linejoin:round;">
  <path d="M 22.100 142.100 H 19.200 C 19.100 142.100 19.200 142.200 19.200 142.100 V 139.300 C 19.200 139.200 19.100 139.300 19.200 139.300 H 25.000 C 25.100 139.300 25.000 139.200 25.000 139.300 V 142.100 C 25.000 142.200 25.100 142.100 25.000 142.100 H 22.100 Z" stroke="rgb(0,0,255)" stroke-width="0.20" />
  <path d="M 34.100 142.100 H 31.200 C 31.100 142.100 31.200 142.200 31.200 142.100 V 139.300 C 31.200 139.200 31.100 139.300 31.200 139.300 H 37.000 C 37.100 139.300 37.000 139.200 37.000 139.300 V 142.100 C 37.000 142.200 37.100 142.100 37.000 142.100 H 34.100 Z" stroke="rgb(0,0,255)" stroke-width="0.20" />
  <path d="M 46.100 142.100 H 43.200 C 43.100 142.100 43.200 142.200 43.200 142.100 V 139.300 C 43.200 139.200 43.100 139.300 43.200 139.300 H 49.000 C 49.100 139.300 49.000 139.200 49.000 139.300 V 142.100 C 49.000 142.200 49.100 142.100 49.000 142.100 H 46.100 Z" stroke="rgb(0,0,255)" stroke-width="0.20" />
  <path d="M 58.100 142.100 H 55.200 C 55.100 142.100 55.200 142.200 55.200 142.100 V 139.300 C 55.200 139.200 55.100 139.300 55.200 139.300 H 61.000 C 61.100 139.300 61.000 139.200 61.000 139.300 V 142.100 C 61.000 142.200 61.100 142.100 61.000 142.100 H 58.100 Z" stroke="rgb(0,0,255)" stroke-width="0.20" />
  <path d="M 70.100 142.100 H 67.200 C 67.100 142.100 67.200 142.200 67.200 142.100 V 139.300 C 67.200 139.200 67.100 139.300 67.200 139.300 H 73.000 C 73.100 139.300 73.000 139.200 73.000 139.300 V 142.100 C 73.000 142.200 73.100 142.100 73.000 142.100 H 70.100 Z" stroke="rgb(0,0,255)" stroke-width="0.20" />
  <path d="M 82.100 142.100 H 79.200 C 79.100 142.100 79.200 142.200 79.200 142.100 V 139.300 C 79.200 139.200 79.100 139.300 79.200 139.300 H 85.000 C 85.100 139.300 85.000 139.200 85.000 139.300 V 142.100 C 85.000 142.200 85.100 142.100 85.000 142.100 H 82.100 Z" stroke="rgb(0,0,255)" stroke-width="0.20" />
  <text dominant-baseline="hanging" font-size="4px" style="font-family: sans-serif ; font-weight: normal; font-style: normal; fill: rgb(255,0,0)" text-anchor="middle" transform="matrix( 1.000 0.000 0.000 1.000 52.100 124.823 )">Left Side</text><path d="M 13.100 151.200 H 25.100 C 26.171 151.200 27.223 150.918 28.150 150.383 C 29.077 149.847 29.847 149.077 30.383 148.150 C 30.901 147.253 31.645 146.508 32.542 145.990 C 33.439 145.473 34.457 145.200 35.492 145.200 H 68.708 C 69.743 145.200 70.761 145.473 71.658 145.990 C 72.555 146.508 73.299 147.253 73.817 148.150 C 74.353 149.077 75.123 149.847 76.050 150.383 C 76.977 150.918 78.029 151.200 79.100 151.200 H 91.100 C 91.155 151.200 91.200 151.155 91.200 151.100 V 145.677 C 91.200 145.577 91.100 145.677 91.200 145.677 H 94.100 C 94.155 145.677 94.200 145.632 94.200 145.577 V 139.577 C 94.200 139.522 94.155 139.477 94.100 139.477 H 91.200 C 91.100 139.477 91.200 139.577 91.200 139.477 V 133.677 C 91.200 133.577 91.100 133.677 91.200 133.677 H 94.100 C 94.155 133.677 94.200 133.632 94.200 133.577 V 127.577 C 94.200 127.522 94.155 127.477 94.100 127.477 H 91.200 C 91.100 127.477 91.200 127.577 91.200 127.477 V 122.054 V 119.100 C 91.200 119.051 91.165 119.010 91.117 119.002 L 13.117 105.248 C 13.056 105.237 13.000 105.284 13.000 105.346 V 107.123 C 13.000 107.223 13.100 107.123 13.000 107.123 H 10.100 C 10.045 107.123 10.000 107.168 10.000 107.223 V 113.223 C 10.000 113.278 10.045 113.323 10.100 113.323 H 13.000 C 13.100 113.323 13.000 113.223 13.000 113.323 V 119.123 C 13.000 119.223 13.100 119.123 13.000 119.123 H 10.100 C 10.045 119.123 10.000 119.168 10.000 119.223 V 125.223 C 10.000 125.278 10.045 125.323 10.100 125.323 H 13.000 C 13.100 125.323 13.000 125.223 13.000 125.323 V 131.123 C 13.000 131.223 13.100 131.123 13.000 131.123 H 10.100 C 10.045 131.123 10.000 131.168 10.000 131.223 V 137.223 C 10.000 137.278 10.045 137.323 10.100 137.323 H 13.000 C 13.100 137.323 13.000 137.223 13.000 137.323 V 143.123 C 13.000 143.223 13.100 143.123 13.000 143.123 H 10.100 C 10.045 143.123 10.000 143.168 10.000 143.223 V 149.223 C 10.000 149.278 10.045 149.323 10.100 149.323 H 13.000 C 13.100 149.323 13.000 149.223 13.000 149.323 V 151.100 C 13.000 151.155 13.045 151.200 13.100 151.200" stroke="rgb(0,0,0)" stroke-width="0.20" />
  <path d="M 81.729 120.418 L 85.323 121.052 C 85.422 121.069 85.341 120.953 85.323 121.052 L 84.811 123.957 C 84.794 124.055 84.910 123.974 84.811 123.957 L 77.622 122.689 C 77.524 122.672 77.605 122.788 77.622 122.689 L 78.134 119.784 C 78.152 119.685 78.036 119.767 78.134 119.784 L 81.729 120.418 Z" stroke="rgb(0,0,255)" stroke-width="0.20" />
  <path d="M 21.455 109.790 L 25.050 110.424 C 25.148 110.441 25.067 110.325 25.050 110.424 L 24.538 113.329 C 24.520 113.427 24.636 113.346 24.538 113.329 L 17.349 112.061 C 17.250 112.044 17.331 112.160 17.349 112.061 L 17.861 109.156 C 17.878 109.058 17.762 109.139 17.861 109.156 L 21.455 109.790 Z" stroke="rgb(0,0,255)" stroke-width="0.20" />
</g>
<g id="p-1" style="fill:none;stroke-linecap:round;stroke-linejoin:round;">
  <path d="M 107.800 142.100 H 104.900 C 104.800 142.100 104.900 142.200 104.900 142.100 V 139.300 C 104.900 139.200 104.800 139.300 104.900 139.300 H 110.700 C 110.800 139.300 110.700 139.200 110.700 139.300 V 142.100 C 110.700 142.200 110.800 142.100 110.700 142.100 H 107.800 Z" stroke="rgb(0,0,255)" stroke-width="0.20" />
  <path d="M 119.800 142.100 H 116.900 C 116.800 142.100 116.900 142.200 116.900 142.100 V 139.300 C 116.900 139.200 116.800 139.300 116.900 139.300 H 122.700 C 122.800 139.300 122.700 139.200 122.700 139.300 V 142.100 C 122.700 142.200 122.800 142.100 122.700 142.100 H 119.800 Z" stroke="rgb(0,0,255)" stroke-width="0.20" />
  <path d="M 131.800 142.100 H 128.900 C 128.800 142.100 128.900 142.200 128.900 142.100 V 139.300 C 128.900 139.200 128.800 139.300 128.900 139.300 H 134.700 C 134.800 139.300 134.700 139.200 134.700 139.300 V 142.100 C 134.700 142.200 134.800 142.100 134.700 142.100 H 131.800 Z" stroke="rgb(0,0,255)" stroke-width="0.20" />
  <path d="M 143.800 142.100 H 140.900 C 140.800 142.100 140.900 142.200 140.900 142.100 V 139.300 C 140.900 139.200 140.800 139.300 140.900 139.300 H 146.700 C 146.800 139.300 146.700 139.200 146.700 139.300 V 142.100 C 146.700 142.200 146.800 142.100 146.700 142.100 H 143.800 Z" stroke="rgb(0,0,255)" stroke-width="0.20" />
  <path d="M 155.800 142.100 H 152.900 C 152.800 142.100 152.900 142.200 152.900 142.100 V 139.300 C 152.900 139.200 152.800 139.300 152.900 139.300 H 158.700 C 158.800 139.300 158.700 139.200 158.700 139.300 V 142.100 C 158.700 142.200 158.800 142.100 158.700 142.100 H 155.800 Z" stroke="rgb(0,0,255)" stroke-width="0.20" />
  <path d="M 167.800 142.100 H 164.900 C 164.800 142.100 164.900 142.200 164.900 142.100 V 139.300 C 164.900 139.200 164.800 139.300 164.900 139.300 H 170.700 C 170.800 139.300 170.700 139.200 170.700 139.300 V 142.100 C 170.700 142.200 170.800 142.100 170.700 142.100 H 167.800 Z" stroke="rgb(0,0,255)" stroke-width="0.20" />
  <text dominant-baseline="hanging" font-size="4px" style="font-family: sans-serif ; font-weight: normal; font-style: normal; fill: rgb(255,0,0)" text-anchor="middle" transform="matrix( 1.000 0.000 0.000 1.000 137.800 124.823 )">Right Side</text><path d="M 98.800 151.200 H 110.800 C 111.871 151.200 112.923 150.918 113.850 150.383 C 114.777 149.847 115.547 149.077 116.083 148.150 C 116.601 147.253 117.345 146.508 118.242 145.990 C 119.139 145.473 120.157 145.200 121.192 145.200 H 154.408 C 155.443 145.200 156.461 145.473 157.358 145.990 C 158.255 146.508 158.999 147.253 159.517 148.150 C 160.053 149.077 160.823 149.847 161.750 150.383 C 162.677 150.918 163.729 151.200 164.800 151.200 H 176.800 C 176.855 151.200 176.900 151.155 176.900 151.100 V 145.677 C 176.900 145.577 176.800 145.677 176.900 145.677 H 179.800 C 179.855 145.677 179.900 145.632 179.900 145.577 V 139.577 C 179.900 139.522 179.855 139.477 179.800 139.477 H 176.900 C 176.800 139.477 176.900 139.577 176.900 139.477 V 133.677 C 176.900 133.577 176.800 133.677 176.900 133.677 H 179.800 C 179.855 133.677 179.900 133.632 179.900 133.577 V 127.577 C 179.900 127.522 179.855 127.477 179.800 127.477 H 176.900 C 176.800 127.477 176.900 127.577 176.900 127.477 V 122.054 V 119.100 C 176.900 119.051 176.865 119.010 176.817 119.002 L 98.817 105.248 C 98.756 105.237 98.700 105.284 98.700 105.346 V 107.123 C 98.700 107.223 98.800 107.123 98.700 107.123 H 95.800 C 95.745 107.123 95.700 107.168 95.700 107.223 V 113.223 C 95.700 113.278 95.745 113.323 95.800 113.323 H 98.700 C 98.800 113.323 98.700 113.223 98.700 113.323 V 119.123 C 98.700 119.223 98.800 119.123 98.700 119.123 H 95.800 C 95.745 119.123 95.700 119.168 95.700 119.223 V 125.223 C 95.700 125.278 95.745 125.323 95.800 125.323 H 98.700 C 98.800 125.323 98.700 125.223 98.700 125.323 V 131.123 C 98.700 131.223 98.800 131.123 98.700 131.123 H 95.800 C 95.745 131.123 95.700 131.168 95.700 131.223 V 137.223 C 95.700 137.278 95.745 137.323 95.800 137.323 H 98.700 C 98.800 137.323 98.700 137.223 98.700 137.323 V 143.123 C 98.700 143.223 98.800 143.123 98.700 143.123 H 95.800 C 95.745 143.123 95.700 143.168 95.700 143.223 V 149.223 C 95.700 149.278 95.745 149.323 95.800 149.323 H 98.700 C 98.800 149.323 98.700 149.223 98.700 149.323 V 151.100 C 98.700 151.155 98.745 151.200 98.800 151.200" stroke="rgb(0,0,0)" stroke-width="0.20" />
  <path d="M 167.429 120.418 L 171.023 121.052 C 171.122 121.069 171.041 120.953 171.023 121.052 L 170.511 123.957 C 170.494 124.055 170.610 123.974 170.511 123.957 L 163.322 122.689 C 163.224 122.672 163.305 122.788 163.322 122.689 L 163.834 119.784 C 163.852 119.685 163.736 119.767 163.834 119.784 L 167.429 120.418 Z" stroke="rgb(0,0,255)" stroke-width="0.20" />
  <path d="M 107.155 109.790 L 110.750 110.424 C 110.848 110.441 110.767 110.325 110.750 110.424 L 110.238 113.329 C 110.220 113.427 110.336 113.346 110.238 113.329 L 103.049 112.061 C 102.950 112.044 103.031 112.160 103.049 112.061 L 103.561 109.156 C 103.578 109.058 103.462 109.139 103.561 109.156 L 107.155 109.790 Z" stroke="rgb(0,0,255)" stroke-width="0.20" />
</g>
<g id="p-2" style="fill:none;stroke-linecap:round;stroke-linejoin:round;">
  <text dominant-baseline="hanging" font-size="4px" style="font-family: sans-serif ; font-weight: normal; font-style: normal; fill: rgb(255,0,0)" text-anchor="middle" transform="matrix( 1.000 0.000 0.000 1.000 223.500 78.700 )">Floor</text><path d="M 184.500 148.200 H 190.400 C 190.500 148.200 190.400 148.100 190.400 148.200 V 151.100 C 190.400 151.155 190.445 151.200 190.500 151.200 H 196.500 C 196.555 151.200 196.600 151.155 196.600 151.100 V 148.200 C 196.600 148.100 196.500 148.200 196.600 148.200 H 202.400 C 202.500 148.200 202.400 148.100 202.400 148.200 V 151.100 C 202.400 151.155 202.445 151.200 202.500 151.200 H 208.500 C 208.555 151.200 208.600 151.155 208.600 151.100 V 148.200 C 208.600 148.100 208.500 148.200 208.600 148.200 H 214.400 C 214.500 148.200 214.400 148.100 214.400 148.200 V 151.100 C 214.400 151.155 214.445 151.200 214.500 151.200 H 220.500 C 220.555 151.200 220.600 151.155 220.600 151.100 V 148.200 C 220.600 148.100 220.500 148.200 220.600 148.200 H 226.400 C 226.500 148.200 226.400 148.100 226.400 148.200 V 151.100 C 226.400 151.155 226.445 151.200 226.500 151.200 H 232.500 C 232.555 151.200 232.600 151.155 232.600 151.100 V 148.200 C 232.600 148.100 232.500 148.200 232.600 148.200 H 238.400 C 238.500 148.200 238.400 148.100 238.400 148.200 V 151.100 C 238.400 151.155 238.445 151.200 238.500 151.200 H 244.500 C 244.555 151.200 244.600 151.155 244.600 151.100 V 148.200 C 244.600 148.100 244.500 148.200 244.600 148.200 H 250.400 C 250.500 148.200 250.400 148.100 250.400 148.200 V 151.100 C 250.400 151.155 250.445 151.200 250.500 151.200 H 256.500 C 256.555 151.200 256.600 151.155 256.600 151.100 V 148.200 C 256.600 148.100 256.500 148.200 256.600 148.200 H 262.500 C 262.555 148.200 262.600 148.155 262.600 148.100 V 143.700 C 262.600 143.600 262.500 143.700 262.600 143.700 H 265.500 C 265.555 143.700 265.600 143.655 265.600 143.600 V 137.600 C 265.600 137.545 265.555 137.500 265.500 137.500 H 262.600 C 262.500 137.500 262.600 137.600 262.600 137.500 V 131.700 C 262.600 131.600 262.500 131.700 262.600 131.700 H 265.500 C 265.555 131.700 265.600 131.655 265.600 131.600 V 125.600 C 265.600 125.545 265.555 125.500 265.500 125.500 H 262.600 C 262.500 125.500 262.600 125.600 262.600 125.500 V 119.700 C 262.600 119.600 262.500 119.700 262.600 119.700 H 265.500 C 265.555 119.700 265.600 119.655 265.600 119.600 V 113.600 C 265.600 113.545 265.555 113.500 265.500 113.500 H 262.600 C 262.500 113.500 262.600 113.600 262.600 113.500 V 107.700 C 262.600 107.600 262.500 107.700 262.600 107.700 H 265.500 C 265.555 107.700 265.600 107.655 265.600 107.600 V 101.600 C 265.600 101.545 265.555 101.500 265.500 101.500 H 262.600 C 262.500 101.500 262.600 101.600 262.600 101.500 V 95.700 C 262.600 95.600 262.500 95.700 262.600 95.700 H 265.500 C 265.555 95.700 265.600 95.655 265.600 95.600 V 89.600 C 265.600 89.545 265.555 89.500 265.500 89.500 H 262.600 C 262.500 89.500 262.600 89.600 262.600 89.500 V 83.700 C 262.600 83.600 262.500 83.700 262.600 83.700 H 265.500 C 265.555 83.700 265.600 83.655 265.600 83.600 V 77.600 C 265.600 77.545 265.555 77.500 265.500 77.500 H 262.600 C 262.500 77.500 262.600 77.600 262.600 77.500 V 71.700 C 262.600 71.600 262.500 71.700 262.600 71.700 H 265.500 C 265.555 71.700 265.600 71.655 265.600 71.600 V 65.600 C 265.600 65.545 265.555 65.500 265.500 65.500 H 262.600 C 262.500 65.500 262.600 65.600 262.600 65.500 V 59.700 C 262.600 59.600 262.500 59.700 262.600 59.700 H 265.500 C 265.555 59.700 265.600 59.655 265.600 59.600 V 53.600 C 265.600 53.545 265.555 53.500 265.500 53.500 H 262.600 C 262.500 53.500 262.600 53.600 262.600 53.500 V 47.700 C 262.600 47.600 262.500 47.700 262.600 47.700 H 265.500 C 265.555 47.700 265.600 47.655 265.600 47.600 V 41.600 C 265.600 41.545 265.555 41.500 265.500 41.500 H 262.600 C 262.500 41.500 262.600 41.600 262.600 41.500 V 35.700 C 262.600 35.600 262.500 35.700 262.600 35.700 H 265.500 C 265.555 35.700 265.600 35.655 265.600 35.600 V 29.600 C 265.600 29.545 265.555 29.500 265.500 29.500 H 262.600 C 262.500 29.500 262.600 29.600 262.600 29.500 V 23.700 C 262.600 23.600 262.500 23.700 262.600 23.700 H 265.500 C 265.555 23.700 265.600 23.655 265.600 23.600 V 17.600 C 265.600 17.545 265.555 17.500 265.500 17.500 H 262.600 C 262.500 17.500 262.600 17.600 262.600 17.500 V 13.100 C 262.600 13.045 262.555 13.000 262.500 13.000 H 256.600 C 256.500 13.000 256.600 13.100 256.600 13.000 V 10.100 C 256.600 10.045 256.555 10.000 256.500 10.000 H 250.500 C 250.445 10.000 250.400 10.045 250.400 10.100 V 13.000 C 250.400 13.100 250.500 13.000 250.400 13.000 H 244.600 C 244.500 13.000 244.600 13.100 244.600 13.000 V 10.100 C 244.600 10.045 244.555 10.000 244.500 10.000 H 238.500 C 238.445 10.000 238.400 10.045 238.400 10.100 V 13.000 C 238.400 13.100 238.500 13.000 238.400 13.000 H 232.600 C 232.500 13.000 232.600 13.100 232.600 13.000 V 10.100 C 232.600 10.045 232.555 10.000 232.500 10.000 H 226.500 C 226.445 10.000 226.400 10.045 226.400 10.100 V 13.000 C 226.400 13.100 226.500 13.000 226.400 13.000 H 220.600 C 220.500 13.000 220.600 13.100 220.600 13.000 V 10.100 C 220.600 10.045 220.555 10.000 220.500 10.000 H 214.500 C 214.445 10.000 214.400 10.045 214.400 10.100 V 13.000 C 214.400 13.100 214.500 13.000 214.400 13.000 H 208.600 C 208.500 13.000 208.600 13.100 208.600 13.000 V 10.100 C 208.600 10.045 208.555 10.000 208.500 10.000 H 202.500 C 202.445 10.000 202.400 10.045 202.400 10.100 V 13.000 C 202.400 13.100 202.500 13.000 202.400 13.000 H 196.600 C 196.500 13.000 196.600 13.100 196.600 13.000 V 10.100 C 196.600 10.045 196.555 10.000 196.500 10.000 H 190.500 C 190.445 10.000 190.400 10.045 190.400 10.100 V 13.000 C 190.400 13.100 190.500 13.000 190.400 13.000 H 184.500 C 184.445 13.000 184.400 13.045 184.400 13.100 V 17.500 C 184.400 17.600 184.500 17.500 184.400 17.500 H 181.500 C 181.445 17.500 181.400 17.545 181.400 17.600 V 23.600 C 181.400 23.655 181.445 23.700 181.500 23.700 H 184.400 C 184.500 23.700 184.400 23.600 184.400 23.700 V 29.500 C 184.400 29.600 184.500 29.500 184.400 29.500 H 181.500 C 181.445 29.500 181.400 29.545 181.400 29.600 V 35.600 C 181.400 35.655 181.445 35.700 181.500 35.700 H 184.400 C 184.500 35.700 184.400 35.600 184.400 35.700 V 41.500 C 184.400 41.600 184.500 41.500 184.400 41.500 H 181.500 C 181.445 41.500 181.400 41.545 181.400 41.600 V 47.600 C 181.400 47.655 181.445 47.700 181.500 47.700 H 184.400 C 184.500 47.700 184.400 47.600 184.400 47.700 V 53.500 C 184.400 53.600 184.500 53.500 184.400 53.500 H 181.500 C 181.445 53.500 181.400 53.545 181.400 53.600 V 59.600 C 181.400 59.655 181.445 59.700 181.500 59.700 H 184.400 C 184.500 59.700 184.400 59.600 184.400 59.700 V 65.500 C 184.400 65.600 184.500 65.500 184.400 65.500 H 181.500 C 181.445 65.500 181.400 65.545 181.400 65.600 V 71.600 C 181.400 71.655 181.445 71.700 181.500 71.700 H 184.400 C 184.500 71.700 184.400 71.600 184.400 71.700 V 77.500 C 184.400 77.600 184.500 77.500 184.400 77.500 H 181.500 C 181.445 77.500 181.400 77.545 181.400 77.600 V 83.600 C 181.400 83.655 181.445 83.700 181.500 83.700 H 184.400 C 184.500 83.700 184.400 83.600 184.400 83.700 V 89.500 C 184.400 89.600 184.500 89.500 184.400 89.500 H 181.500 C 181.445 89.500 181.400 89.545 181.400 89.600 V 95.600 C 181.400 95.655 181.445 95.700 181.500 95.700 H 184.400 C 184.500 95.700 184.400 95.600 184.400 95.700 V 101.500 C 184.400 101.600 184.500 101.500 184.400 101.500 H 181.500 C 181.445 101.500 181.400 101.545 181.400 101.600 V 107.600 C 181.400 107.655 181.445 107.700 181.500 107.700 H 184.400 C 184.500 107.700 184.400 107.600 184.400 107.700 V 113.500 C 184.400 113.600 184.500 113.500 184.400 113.500 H 181.500 C 181.445 113.500 181.400 113.545 181.400 113.600 V 119.600 C 181.400 119.655 181.445 119.700 181.500 119.700 H 184.400 C 184.500 119.700 184.400 119.600 184.400 119.700 V 125.500 C 184.400 125.600 184.500 125.500 184.400 125.500 H 181.500 C 181.445 125.500 181.400 125.545 181.400 125.600 V 131.600 C 181.400 131.655 181.445 131.700 181.500 131.700 H 184.400 C 184.500 131.700 184.400 131.600 184.400 131.700 V 137.500 C 184.400 137.600 184.500 137.500 184.400 137.500 H 181.500 C 181.445 137.500 181.400 137.545 181.400 137.600 V 143.600 C 181.400 143.655 181.445 143.700 181.500 143.700 H 184.400 C 184.500 143.700 184.400 143.600 184.400 143.700 V 148.100 C 184.400 148.155 184.445 148.200 184.500 148.200" stroke="rgb(0,0,0)" stroke-width="0.20" />
</g>
<g id="p-3" style="fill:none;stroke-linecap:round;stroke-linejoin:round;">
  <text dominant-baseline="hanging" font-size="4px" style="font-family: sans-serif ; font-weight: normal; font-style: normal; fill: rgb(255,0,0)" text-anchor="middle" transform="matrix( 1.000 0.000 0.000 1.000 281.723 78.700 )">Front</text><path d="M 267.200 151.200 H 272.723 C 272.778 151.200 272.823 151.155 272.823 151.100 V 148.200 C 272.823 148.100 272.723 148.200 272.823 148.200 H 278.623 C 278.723 148.200 278.623 148.100 278.623 148.200 V 151.100 C 278.623 151.155 278.668 151.200 278.723 151.200 H 284.723 C 284.778 151.200 284.823 151.155 284.823 151.100 V 148.200 C 284.823 148.100 284.723 148.200 284.823 148.200 H 290.623 C 290.723 148.200 290.623 148.100 290.623 148.200 V 151.100 C 290.623 151.155 290.668 151.200 290.723 151.200 H 296.246 C 296.301 151.200 296.346 151.155 296.346 151.100 V 148.100 V 13.100 V 10.100 C 296.346 10.045 296.301 10.000 296.246 10.000 H 290.723 C 290.668 10.000 290.623 10.045 290.623 10.100 V 13.000 C 290.623 13.100 290.723 13.000 290.623 13.000 H 284.823 C 284.723 13.000 284.823 13.100 284.823 13.000 V 10.100 C 284.823 10.045 284.778 10.000 284.723 10.000 H 278.723 C 278.668 10.000 278.623 10.045 278.623 10.100 V 13.000 C 278.623 13.100 278.723 13.000 278.623 13.000 H 272.823 C 272.723 13.000 272.823 13.100 272.823 13.000 V 10.100 C 272.823 10.045 272.778 10.000 272.723 10.000 H 267.200 C 267.145 10.000 267.100 10.045 267.100 10.100 V 13.100 V 25.100 C 267.100 26.171 267.382 27.223 267.917 28.150 C 268.453 29.077 269.223 29.847 270.150 30.383 C 271.047 30.901 271.792 31.645 272.310 32.542 C 272.827 33.439 273.100 34.457 273.100 35.492 V 125.708 C 273.100 126.743 272.827 127.761 272.310 128.658 C 271.792 129.555 271.047 130.299 270.150 130.817 C 269.223 131.353 268.453 132.123 267.917 133.050 C 267.382 133.977 267.100 135.029 267.100 136.100 V 148.100 V 151.100 C 267.100 151.155 267.145 151.200 267.200 151.200" stroke="rgb(0,0,0)" stroke-width="0.20" />
  <path d="M 276.200 20.600 V 17.700 C 276.200 17.600 276.100 17.700 276.200 17.700 H 279.000 C 279.100 17.700 279.000 17.600 279.000 17.700 V 23.500 C 279.000 23.600 279.100 23.500 279.000 23.500 H 276.200 C 276.100 23.500 276.200 23.600 276.200 23.500 V 20.600 Z" stroke="rgb(0,0,255)" stroke-width="0.20" />
  <path d="M 276.200 32.600 V 29.700 C 276.200 29.600 276.100 29.700 276.200 29.700 H 279.000 C 279.100 29.700 279.000 29.600 279.000 29.700 V 35.500 C 279.000 35.600 279.100 35.500 279.000 35.500 H 276.200 C 276.100 35.500 276.200 35.600 276.200 35.500 V 32.600 Z" stroke="rgb(0,0,255)" stroke-width="0.20" />
  <path d="M 276.200 44.600 V 41.700 C 276.200 41.600 276.100 41.700 276.200 41.700 H 279.000 C 279.100 41.700 279.000 41.600 279.000 41.700 V 47.500 C 279.000 47.600 279.100 47.500 279.000 47.500 H 276.200 C 276.100 47.500 276.200 47.600 276.200 47.500 V 44.600 Z" stroke="rgb(0,0,255)" stroke-width="0.20" />
  <path d="M 276.200 56.600 V 53.700 C 276.200 53.600 276.100 53.700 276.200 53.700 H 279.000 C 279.100 53.700 279.000 53.600 279.000 53.700 V 59.500 C 279.000 59.600 279.100 59.500 279.000 59.500 H 276.200 C 276.100 59.500 276.200 59.600 276.200 59.500 V 56.600 Z" stroke="rgb(0,0,255)" stroke-width="0.20" />
  <path d="M 276.200 68.600 V 65.700 C 276.200 65.600 276.100 65.700 276.200 65.700 H 279.000 C 279.100 65.700 279.000 65.600 279.000 65.700 V 71.500 C 279.000 71.600 279.100 71.500 279.000 71.500 H 276.200 C 276.100 71.500 276.200 71.600 276.200 71.500 V 68.600 Z" stroke="rgb(0,0,255)" stroke-width="0.20" />
  <path d="M 276.200 80.600 V 77.700 C 276.200 77.600 276.100 77.700 276.200 77.700 H 279.000 C 279.100 77.700 279.000 77.600 279.000 77.700 V 83.500 C 279.000 83.600 279.100 83.500 279.000 83.500 H 276.200 C 276.100 83.500 276.200 83.600 276.200 83.500 V 80.600 Z" stroke="rgb(0,0,255)" stroke-width="0.20" />
  <path d="M 276.200 92.600 V 89.700 C 276.200 89.600 276.100 89.700 276.200 89.700 H 279.000 C 279.100 89.700 279.000 89.600 279.000 89.700 V 95.500 C 279.000 95.600 279.100 95.500 279.000 95.500 H 276.200 C 276.100 95.500 276.200 95.600 276.200 95.500 V 92.600 Z" stroke="rgb(0,0,255)" stroke-width="0.20" />
  <path d="M 276.200 104.600 V 101.700 C 276.200 101.600 276.100 101.700 276.200 101.700 H 279.000 C 279.100 101.700 279.000 101.600 279.000 101.700 V 107.500 C 279.000 107.600 279.100 107.500 279.000 107.500 H 276.200 C 276.100 107.500 276.200 107.600 276.200 107.500 V 104.600 Z" stroke="rgb(0,0,255)" stroke-width="0.20" />
  <path d="M 276.200 116.600 V 113.700 C 276.200 113.600 276.100 113.700 276.200 113.700 H 279.000 C 279.100 113.700 279.000 113.600 279.000 113.700 V 119.500 C 279.000 119.600 279.100 119.500 279.000 119.500 H 276.200 C 276.100 119.500 276.200 119.600 276.200 119.500 V 116.600 Z" stroke="rgb(0,0,255)" stroke-width="0.20" />
  <path d="M 276.200 128.600 V 125.700 C 276.200 125.600 276.100 125.700 276.200 125.700 H 279.000 C 279.100 125.700 279.000 125.600 279.000 125.700 V 131.500 C 279.000 131.600 279.100 131.500 279.000 131.500 H 276.200 C 276.100 131.500 276.200 131.600 276.200 131.500 V 128.600 Z" stroke="rgb(0,0,255)" stroke-width="0.20" />
  <path d="M 276.200 140.600 V 137.700 C 276.200 137.600 276.100 137.700 276.200 137.700 H 279.000 C 279.100 137.700 279.000 137.600 279.000 137.700 V 143.500 C 279.000 143.600 279.100 143.500 279.000 143.500 H 276.200 C 276.100 143.500 276.200 143.600 276.200 143.500 V 140.600 Z" stroke="rgb(0,0,255)" stroke-width="0.20" />
</g>
<g id="p-4" style="fill:none;stroke-linecap:round;stroke-linejoin:round;">
  <text dominant-baseline="hanging" font-size="4px" style="font-family: sans-serif ; font-weight: normal; font-style: normal; fill: rgb(255,0,0)" text-anchor="middle" transform="matrix( 1.000 0.000 0.000 1.000 340.547 78.700 )">Panel</text><path d="M 300.946 151.200 H 380.149 H 383.149 C 383.204 151.200 383.249 151.155 383.249 151.100 V 148.100 V 13.100 V 10.100 C 383.249 10.045 383.204 10.000 383.149 10.000 H 380.149 H 300.946 H 297.946 C 297.890 10.000 297.846 10.045 297.846 10.100 V 13.100 V 148.100 V 151.100 C 297.846 151.155 297.890 151.200 297.946 151.200 H 300.946" stroke="rgb(0,0,0)" stroke-width="0.20" />
</g>
<g id="p-5" style="fill:none;stroke-linecap:round;stroke-linejoin:round;">
  <text dominant-baseline="hanging" font-size="4px" style="font-family: sans-serif ; font-weight: normal; font-style: normal; fill: rgb(255,0,0)" text-anchor="middle" transform="matrix( 1.000 0.000 0.000 1.000 407.726 78.700 )">Back Wall</text><path d="M 384.849 151.200 H 386.726 C 386.781 151.200 386.826 151.155 386.826 151.100 V 148.200 C 386.826 148.100 386.726 148.200 386.826 148.200 H 392.626 C 392.726 148.200 392.626 148.100 392.626 148.200 V 151.100 C 392.626 151.155 392.670 151.200 392.726 151.200 H 398.726 C 398.781 151.200 398.826 151.155 398.826 151.100 V 148.200 C 398.826 148.100 398.726 148.200 398.826 148.200 H 404.626 C 404.726 148.200 404.626 148.100 404.626 148.200 V 151.100 C 404.626 151.155 404.670 151.200 404.726 151.200 H 410.726 C 410.781 151.200 410.826 151.155 410.826 151.100 V 148.200 C 410.826 148.100 410.726 148.200 410.826 148.200 H 416.626 C 416.726 148.200 416.626 148.100 416.626 148.200 V 151.100 C 416.626 151.155 416.670 151.200 416.726 151.200 H 422.726 C 422.781 151.200 422.826 151.155 422.826 151.100 V 148.200 C 422.826 148.100 422.726 148.200 422.826 148.200 H 428.626 C 428.726 148.200 428.626 148.100 428.626 148.200 V 151.100 C 428.626 151.155 428.670 151.200 428.726 151.200 H 430.602 C 430.658 151.200 430.702 151.155 430.702 151.100 V 148.100 V 136.100 C 430.702 135.029 430.420 133.977 429.885 133.050 C 429.350 132.123 428.580 131.353 427.652 130.817 C 426.755 130.299 426.011 129.555 425.493 128.658 C 424.975 127.761 424.702 126.743 424.702 125.708 V 35.492 C 424.702 34.457 424.975 33.439 425.493 32.542 C 426.011 31.645 426.755 30.901 427.652 30.383 C 428.580 29.847 429.350 29.077 429.885 28.150 C 430.420 27.223 430.702 26.171 430.702 25.100 V 13.100 V 10.100 C 430.702 10.045 430.658 10.000 430.602 10.000 H 428.726 C 428.670 10.000 428.626 10.045 428.626 10.100 V 13.000 C 428.626 13.100 428.726 13.000 428.626 13.000 H 422.826 C 422.726 13.000 422.826 13.100 422.826 13.000 V 10.100 C 422.826 10.045 422.781 10.000 422.726 10.000 H 416.726 C 416.670 10.000 416.626 10.045 416.626 10.100 V 13.000 C 416.626 13.100 416.726 13.000 416.626 13.000 H 410.826 C 410.726 13.000 410.826 13.100 410.826 13.000 V 10.100 C 410.826 10.045 410.781 10.000 410.726 10.000 H 404.726 C 404.670 10.000 404.626 10.045 404.626 10.100 V 13.000 C 404.626 13.100 404.726 13.000 404.626 13.000 H 398.826 C 398.726 13.000 398.826 13.100 398.826 13.000 V 10.100 C 398.826 10.045 398.781 10.000 398.726 10.000 H 392.726 C 392.670 10.000 392.626 10.045 392.626 10.100 V 13.000 C 392.626 13.100 392.726 13.000 392.626 13.000 H 386.826 C 386.726 13.000 386.826 13.100 386.826 13.000 V 10.100 C 386.826 10.045 386.781 10.000 386.726 10.000 H 384.849 C 384.794 10.000 384.749 10.045 384.749 10.100 V 13.100 V 148.100 V 151.100 C 384.749 151.155 384.794 151.200 384.849 151.200" stroke="rgb(0,0,0)" stroke-width="0.20" />
  <path d="M 421.602 140.600 V 143.500 C 421.602 143.600 421.702 143.500 421.602 143.500 H 418.802 C 418.702 143.500 418.802 143.600 418.802 143.500 V 137.700 C 418.802 137.600 418.702 137.700 418.802 137.700 H 421.602 C 421.702 137.700 421.602 137.600 421.602 137.700 V 140.600 Z" stroke="rgb(0,0,255)" stroke-width="0.20" />
  <path d="M 421.602 128.600 V 131.500 C 421.602 131.600 421.702 131.500 421.602 131.500 H 418.802 C 418.702 131.500 418.802 131.600 418.802 131.500 V 125.700 C 418.802 125.600 418.702 125.700 418.802 125.700 H 421.602 C 421.702 125.700 421.602 125.600 421.602 125.700 V 128.600 Z" stroke="rgb(0,0,255)" stroke-width="0.20" />
  <path d="M 421.602 116.600 V 119.500 C 421.602 119.600 421.702 119.500 421.602 119.500 H 418.802 C 418.702 119.500 418.802 119.600 418.802 119.500 V 113.700 C 418.802 113.600 418.702 113.700 418.802 113.700 H 421.602 C 421.702 113.700 421.602 113.600 421.602 113.700 V 116.600 Z" stroke="rgb(0,0,255)" stroke-width="0.20" />
  <path d="M 421.602 104.600 V 107.500 C 421.602 107.600 421.702 107.500 421.602 107.500 H 418.802 C 418.702 107.500 418.802 107.600 418.802 107.500 V 101.700 C 418.802 101.600 418.702 101.700 418.802 101.700 H 421.602 C 421.702 101.700 421.602 101.600 421.602 101.700 V 104.600 Z" stroke="rgb(0,0,255)" stroke-width="0.20" />
  <path d="M 421.602 92.600 V 95.500 C 421.602 95.600 421.702 95.500 421.602 95.500 H 418.802 C 418.702 95.500 418.802 95.600 418.802 95.500 V 89.700 C 418.802 89.600 418.702 89.700 418.802 89.700 H 421.602 C 421.702 89.700 421.602 89.600 421.602 89.700 V 92.600 Z" stroke="rgb(0,0,255)" stroke-width="0.20" />
  <path d="M 421.602 80.600 V 83.500 C 421.602 83.600 421.702 83.500 421.602 83.500 H 418.802 C 418.702 83.500 418.802 83.600 418.802 83.500 V 77.700 C 418.802 77.600 418.702 77.700 418.802 77.700 H 421.602 C 421.702 77.700 421.602 77.600 421.602 77.700 V 80.600 Z" stroke="rgb(0,0,255)" stroke-width="0.20" />
  <path d="M 421.602 68.600 V 71.500 C 421.602 71.600 421.702 71.500 421.602 71.500 H 418.802 C 418.702 71.500 418.802 71.600 418.802 71.500 V 65.700 C 418.802 65.600 418.702 65.700 418.802 65.700 H 421.602 C 421.702 65.700 421.602 65.600 421.602 65.700 V 68.600 Z" stroke="rgb(0,0,255)" stroke-width="0.20" />
  <path d="M 421.602 56.600 V 59.500 C 421.602 59.600 421.702 59.500 421.602 59.500 H 418.802 C 418.702 59.500 418.802 59.600 418.802 59.500 V 53.700 C 418.802 53.600 418.702 53.700 418.802 53.700 H 421.602 C 421.702 53.700 421.602 53.600 421.602 53.700 V 56.600 Z" stroke="rgb(0,0,255)" stroke-width="0.20" />
  <path d="M 421.602 44.600 V 47.500 C 421.602 47.600 421.702 47.500 421.602 47.500 H 418.802 C 418.702 47.500 418.802 47.600 418.802 47.500 V 41.700 C 418.802 41.600 418.702 41.700 418.802 41.700 H 421.602 C 421.702 41.700 421.602 41.600 421.602 41.700 V 44.600 Z" stroke="rgb(0,0,255)" stroke-width="0.20" />
  <path d="M 421.602 32.600 V 35.500 C 421.602 35.600 421.702 35.500 421.602 35.500 H 418.802 C 418.702 35.500 418.802 35.600 418.802 35.500 V 29.700 C 418.802 29.600 418.702 29.700 418.802 29.700 H 421.602 C 421.702 29.700 421.602 29.600 421.602 29.700 V 32.600 Z" stroke="rgb(0,0,255)" stroke-width="0.20" />
  <path d="M 421.602 20.600 V 23.500 C 421.602 23.600 421.702 23.500 421.602 23.500 H 418.802 C 418.702 23.500 418.802 23.600 418.802 23.500 V 17.700 C 418.802 17.600 418.702 17.700 418.802 17.700 H 421.602 C 421.702 17.700 421.602 17.600 421.602 17.700 V 20.600 Z" stroke="rgb(0,0,255)" stroke-width="0.20" />
</g>
<g id="p-6" style="fill:none;stroke-linecap:round;stroke-linejoin:round;">
  <path d="M 441.302 148.200 V 19.350 C 441.302 19.295 441.258 19.250 441.202 19.250 H 438.302 C 438.202 19.250 438.302 19.350 438.302 19.250 V 16.350 C 438.302 16.295 438.258 16.250 438.202 16.250 H 435.202 C 435.147 16.250 435.102 16.295 435.102 16.350 V 19.250 C 435.102 19.350 435.202 19.250 435.102 19.250 H 432.202 C 432.147 19.250 432.102 19.295 432.102 19.350 V 148.200 C 432.102 148.255 432.147 148.300 432.202 148.300 H 435.102 C 435.202 148.300 435.102 148.200 435.102 148.300 V 151.200 C 435.102 151.255 435.147 151.300 435.202 151.300 H 438.202 C 438.258 151.300 438.302 151.255 438.302 151.200 V 148.300 C 438.302 148.200 438.202 148.300 438.302 148.300 H 441.202 C 441.258 148.300 441.302 148.255 441.302 148.200 Z" stroke="rgb(0,0,0)" stroke-width="0.20" />
</g>
<g id="p-7" style="fill:none;stroke-linecap:round;stroke-linejoin:round;">
  <path d="M 452.002 148.200 V 19.350 C 452.002 19.295 451.958 19.250 451.902 19.250 H 449.002 C 448.902 19.250 449.002 19.350 449.002 19.250 V 16.350 C 449.002 16.295 448.958 16.250 448.902 16.250 H 445.902 C 445.847 16.250 445.802 16.295 445.802 16.350 V 19.250 C 445.802 19.350 445.902 19.250 445.802 19.250 H 442.902 C 442.847 19.250 442.802 19.295 442.802 19.350 V 148.200 C 442.802 148.255 442.847 148.300 442.902 148.300 H 445.802 C 445.902 148.300 445.802 148.200 445.802 148.300 V 151.200 C 445.802 151.255 445.847 151.300 445.902 151.300 H 448.902 C 448.958 151.300 449.002 151.255 449.002 151.200 V 148.300 C 449.002 148.200 448.902 148.300 449.002 148.300 H 451.902 C 451.958 148.300 452.002 148.255 452.002 148.200 Z" stroke="rgb(0,0,0)" stroke-width="0.20" />
</g>
<g id="p-8" style="fill:none;stroke-linecap:round;stroke-linejoin:round;">
  <path d="M 484.304 145.200 V 148.200 C 484.304 148.255 484.349 148.300 484.404 148.300 H 490.404 C 490.459 148.300 490.504 148.255 490.504 148.200 V 145.300 C 490.504 145.200 490.404 145.300 490.504 145.300 H 514.906 C 515.006 145.300 514.906 145.200 514.906 145.300 V 149.700 C 514.906 149.981 514.980 150.257 515.120 150.500 C 515.260 150.743 515.462 150.945 515.706 151.086 C 515.949 151.226 516.225 151.300 516.506 151.300 H 519.506 C 519.786 151.300 520.062 151.226 520.306 151.086 C 520.549 150.945 520.751 150.743 520.891 150.500 C 521.032 150.257 521.106 149.981 521.106 149.700 V 146.700 C 521.106 146.645 521.061 146.600 521.006 146.600 H 519.606 C 519.506 146.600 519.606 146.700 519.606 146.600 V 145.200 C 519.606 145.255 519.561 145.300 519.506 145.300 C 519.786 145.300 520.062 145.226 520.306 145.086 C 520.549 144.945 520.751 144.743 520.891 144.500 C 521.032 144.257 521.106 143.981 521.106 143.700 C 521.106 143.645 521.061 143.600 521.006 143.600 H 453.802 C 453.747 143.600 453.702 143.645 453.702 143.700 C 453.702 143.981 453.776 144.257 453.917 144.500 C 454.057 144.743 454.259 144.945 454.502 145.086 C 454.746 145.226 455.021 145.300 455.302 145.300 C 455.247 145.300 455.202 145.255 455.202 145.200 V 146.600 C 455.202 146.700 455.302 146.600 455.202 146.600 H 453.802 C 453.747 146.600 453.702 146.645 453.702 146.700 V 149.700 C 453.702 149.981 453.776 150.257 453.917 150.500 C 454.057 150.743 454.259 150.945 454.502 151.086 C 454.746 151.226 455.021 151.300 455.302 151.300 H 458.302 C 458.583 151.300 458.859 151.226 459.102 151.086 C 459.346 150.945 459.548 150.743 459.688 150.500 C 459.828 150.257 459.902 149.981 459.902 149.700 V 145.300 C 459.902 145.200 459.802 145.300 459.902 145.300 H 484.404" stroke="rgb(0,0,0)" stroke-width="0.20" />
</g>
<g id="p-9" style="fill:none;stroke-linecap:round;stroke-linejoin:round;">
  <path d="M 484.304 136.000 V 139.000 C 484.304 139.055 484.349 139.100 484.404 139.100 H 490.404 C 490.459 139.100 490.504 139.055 490.504 139.000 V 136.100 C 490.504 136.000 490.404 136.100 490.504 136.100 H 514.906 C 515.006 136.100 514.906 136.000 514.906 136.100 V 140.500 C 514.906 140.781 514.980 141.057 515.120 141.300 C 515.260 141.543 515.462 141.745 515.706 141.886 C 515.949 142.026 516.225 142.100 516.506 142.100 H 519.506 C 519.786 142.100 520.062 142.026 520.306 141.886 C 520.549 141.745 520.751 141.543 520.891 141.300 C 521.032 141.057 521.106 140.781 521.106 140.500 V 137.500 C 521.106 137.445 521.061 137.400 521.006 137.400 H 519.606 C 519.506 137.400 519.606 137.500 519.606 137.400 V 136.000 C 519.606 136.055 519.561 136.100 519.506 136.100 C 519.786 136.100 520.062 136.026 520.306 135.886 C 520.549 135.745 520.751 135.543 520.891 135.300 C 521.032 135.057 521.106 134.781 521.106 134.500 C 521.106 134.445 521.061 134.400 521.006 134.400 H 453.802 C 453.747 134.400 453.702 134.445 453.702 134.500 C 453.702 134.781 453.776 135.057 453.917 135.300 C 454.057 135.543 454.259 135.745 454.502 135.886 C 454.746 136.026 455.021 136.100 455.302 136.100 C 455.247 136.100 455.202 136.055 455.202 136.000 V 137.400 C 455.202 137.500 455.302 137.400 455.202 137.400 H 453.802 C 453.747 137.400 453.702 137.445 453.702 137.500 V 140.500 C 453.702 140.781 453.776 141.057 453.917 141.300 C 454.057 141.543 454.259 141.745 454.502 141.886 C 454.746 142.026 455.021 142.100 455.302 142.100 H 458.302 C 458.583 142.100 458.859 142.026 459.102 141.886 C 459.346 141.745 459.548 141.543 459.688 141.300 C 459.828 141.057 459.902 140.781 459.902 140.500 V 136.100 C 459.902 136.000 459.802 136.100 459.902 136.100 H 484.404" stroke="rgb(0,0,0)" stroke-width="0.20" />
</g>
<g id="p-10" style="fill:none;stroke-linecap:round;stroke-linejoin:round;">
  <path d="M 462.702 129.775 H 458.302 C 458.202 129.775 458.302 129.875 458.302 129.775 V 126.825 C 458.302 126.725 458.202 126.825 458.302 126.825 H 467.102 C 467.202 126.825 467.102 126.725 467.102 126.825 V 129.775 C 467.102 129.875 467.202 129.775 467.102 129.775 H 462.702 Z" stroke="rgb(0,0,255)" stroke-width="0.20" />
  <path d="M 523.906 129.775 H 519.506 C 519.406 129.775 519.506 129.875 519.506 129.775 V 126.825 C 519.506 126.725 519.406 126.825 519.506 126.825 H 528.306 C 528.406 126.825 528.306 126.725 528.306 126.825 V 129.775 C 528.306 129.875 528.406 129.775 528.306 129.775 H 523.906 Z" stroke="rgb(0,0,255)" stroke-width="0.20" />
  <path d="M 493.304 129.700 H 490.404 C 490.304 129.700 490.404 129.800 490.404 129.700 V 126.900 C 490.404 126.800 490.304 126.900 490.404 126.900 H 496.204 C 496.304 126.900 496.204 126.800 496.204 126.900 V 129.700 C 496.204 129.800 496.304 129.700 496.204 129.700 H 493.304 Z" stroke="rgb(0,0,255)" stroke-width="0.20" />
  <path d="M 453.702 132.800 H 532.906 C 532.961 132.800 533.006 132.755 533.006 132.700 V 129.700 C 533.006 129.645 532.961 129.600 532.906 129.600 H 530.006 C 529.906 129.600 530.006 129.700 530.006 129.600 V 126.800 C 530.006 126.700 529.906 126.800 530.006 126.800 H 532.906 C 532.961 126.800 533.006 126.755 533.006 126.700 V 123.700 C 533.006 123.645 532.961 123.600 532.906 123.600 H 453.702 C 453.647 123.600 453.602 123.645 453.602 123.700 V 126.700 C 453.602 126.755 453.647 126.800 453.702 126.800 H 456.602 C 456.702 126.800 456.602 126.700 456.602 126.800 V 129.600 C 456.602 129.700 456.702 129.600 456.602 129.600 H 453.702 C 453.647 129.600 453.602 129.645 453.602 129.700 V 132.700 C 453.602 132.755 453.647 132.800 453.702 132.800 Z" stroke="rgb(0,0,0)" stroke-width="0.20" />
</g>
<g id="p-11" style="fill:none;stroke-linecap:round;stroke-linejoin:round;">
  <path d="M 462.702 119.075 H 458.302 C 458.202 119.075 458.302 119.175 458.302 119.075 V 116.125 C 458.302 116.025 458.202 116.125 458.302 116.125 H 467.102 C 467.202 116.125 467.102 116.025 467.102 116.125 V 119.075 C 467.102 119.175 467.202 119.075 467.102 119.075 H 462.702 Z" stroke="rgb(0,0,255)" stroke-width="0.20" />
  <path d="M 523.906 119.075 H 519.506 C 519.406 119.075 519.506 119.175 519.506 119.075 V 116.125 C 519.506 116.025 519.406 116.125 519.506 116.125 H 528.306 C 528.406 116.125 528.306 116.025 528.306 116.125 V 119.075 C 528.306 119.175 528.406 119.075 528.306 119.075 H 523.906 Z" stroke="rgb(0,0,255)" stroke-width="0.20" />
  <path d="M 493.304 119.000 H 490.404 C 490.304 119.000 490.404 119.100 490.404 119.000 V 116.200 C 490.404 116.100 490.304 116.200 490.404 116.200 H 496.204 C 496.304 116.200 496.204 116.100 496.204 116.200 V 119.000 C 496.204 119.100 496.304 119.000 496.204 119.000 H 493.304 Z" stroke="rgb(0,0,255)" stroke-width="0.20" />
  <path d="M 453.702 122.100 H 532.906 C 532.961 122.100 533.006 122.055 533.006 122.000 V 119.000 C 533.006 118.945 532.961 118.900 532.906 118.900 H 530.006 C 529.906 118.900 530.006 119.000 530.006 118.900 V 116.100 C 530.006 116.000 529.906 116.100 530.006 116.100 H 532.906 C 532.961 116.100 533.006 116.055 533.006 116.000 V 113.000 C 533.006 112.945 532.961 112.900 532.906 112.900 H 453.702 C 453.647 112.900 453.602 112.945 453.602 113.000 V 116.000 C 453.602 116.055 453.647 116.100 453.702 116.100 H 456.602 C 456.702 116.100 456.602 116.000 456.602 116.100 V 118.900 C 456.602 119.000 456.702 118.900 456.602 118.900 H 453.702 C 453.647 118.900 453.602 118.945 453.602 119.000 V 122.000 C 453.602 122.055 453.647 122.100 453.702 122.100 Z" stroke="rgb(0,0,0)" stroke-width="0.20" />
</g>
</svg>