<?xml version='1.0' encoding='utf-8'?>
<svg height="82.90mm" viewBox="0.0 0.0 307.51 82.90" width="307.51mm" xmlns="http://www.w3.org/2000/svg" xmlns:cc="http://creativecommons.org/ns#" xmlns:dc="http://purl.org/dc/elements/1.1/" xmlns:inkscape="http://www.inkscape.org/namespaces/inkscape" xmlns:rdf="http://www.w3.org/1999/02/22-rdf-syntax-ns#" xmlns:svg="http://www.w3.org/2000/svg" xmlns:xlink="http://www.w3.org/1999/xlink">
<!--
Console2 - Console with slanted panel and service hatches



This box is designed as a housing for electronic projects. It has hatches that can be re-opened with simple tools. It intentionally cannot be opened with bare hands - if build with thin enough material.

#### Caution
There is a chance that the latches of the back wall or the back wall itself interfere with the front panel or it's mounting frame/lips. The generator does not check for this. So depending on the variant chosen you might need to make the box deeper (increase y parameter) or the panel angle steeper (increase angle parameter) until there is enough room.

It's also possible that the frame of the panel interferes with the floor if the hi parameter is too small.

#### Assembly instructions
The main body is easy to assemble by starting with the floor and then adding the four walls and (if present) the top piece.

If the back wall is removable you need to add the lips and latches. The U-shaped clamps holding the latches in place need to be clued in place without also gluing the latches themselves. Make sure the springs on the latches point inwards and the angled ends point to the side walls as shown here:

![Back wall details](static/samples/Console2-backwall-detail.jpg)

If the panel is removable you need to add the springs with the tabs to the side lips. This photo shows the variant which has the panel glued to the frame:

![Back wall details](static/samples/Console2-panel-detail.jpg)

If space is tight you may consider not gluing the cross pieces in place and remove them after the glue-up. This may prevent the latches of the back wall and the panel from interfering with each other.

The variant using finger joints only has the two side lips without the cross bars.

#### Re-Opening

The latches at the back wall lock in place when closed. To open them they need to be pressed in and can then be moved aside.

To remove the panel you have to press in the four tabs at the side. It is easiest to push them in and then pull the panel up a little bit so the tabs stay in.



Created with Boxes.py (https://festi.info/boxes.py)
Creation date: 2024-03-07 00:05:57
Command line (remove spaces between dashes): boxes Console2 - -x=45 - -y=50 - -h=20 - -bottom_edge=h - -front_height=10 - -angle=40 - -removable_backwall=0 - -removable_panel=0 - -tabs=5 - -labels=0
Url: http://www.festi.info/boxes.py/Console2?FingerJoint_angle=90.0&FingerJoint_style=rectangular&FingerJoint_surroundingspaces=0.5&FingerJoint_bottom_lip=0.0&FingerJoint_edge_width=1.0&FingerJoint_extra_length=0.0&FingerJoint_finger=2.0&FingerJoint_play=0.0&FingerJoint_space=2.0&FingerJoint_width=1.0&Stackable_angle=60&Stackable_bottom_stabilizers=0.0&Stackable_height=2.0&Stackable_holedistance=1.0&Stackable_width=4.0&x=45&y=50&h=20&bottom_edge=h&outside=0&front_height=10&angle=40&removable_backwall=0&removable_panel=0&glued_panel=0&glued_panel=1&thickness=3.0&format=svg&tabs=5&qr_code=0&debug=0&labels=0&reference=100&inner_corners=loop&burn=0.1&language=en&render=2
Url short: http://www.festi.info/boxes.py/Console2?x=45&y=50&h=20&bottom_edge=h&front_height=10&angle=40&removable_backwall=0&removable_panel=0&tabs=5&labels=0
SettingsUrl: http://www.festi.info/boxes.py/Console2?FingerJoint_angle=90.0&FingerJoint_style=rectangular&FingerJoint_surroundingspaces=0.5&FingerJoint_bottom_lip=0.0&FingerJoint_edge_width=1.0&FingerJoint_extra_length=0.0&FingerJoint_finger=2.0&FingerJoint_play=0.0&FingerJoint_space=2.0&FingerJoint_width=1.0&Stackable_angle=60&Stackable_bottom_stabilizers=0.0&Stackable_height=2.0&Stackable_holedistance=1.0&Stackable_width=4.0&x=45&y=50&h=20&bottom_edge=h&outside=0&front_height=10&angle=40&removable_backwall=0&removable_panel=0&glued_panel=0&glued_panel=1&thickness=3.0&format=svg&tabs=5&qr_code=0&debug=0&labels=0&reference=100&inner_corners=loop&burn=0.1&language=en&render=2
SettingsUrl short: http://www.festi.info/boxes.py/Console2?x=45&y=50&h=20&bottom_edge=h&front_height=10&angle=40&removable_backwall=0&removable_panel=0&tabs=5&labels=0
-->
<title>Console2</title>
<metadata>
<rdf:RDF><cc:Work>
<dc:title>Box - Console2</dc:title>
<dc:date>2024-03-07 00:05:57</dc:date>
<dc:source>http://www.festi.info/boxes.py/Console2?FingerJoint_angle=90.0&amp;FingerJoint_style=rectangular&amp;FingerJoint_surroundingspaces=0.5&amp;FingerJoint_bottom_lip=0.0&amp;FingerJoint_edge_width=1.0&amp;FingerJoint_extra_length=0.0&amp;FingerJoint_finger=2.0&amp;FingerJoint_play=0.0&amp;FingerJoint_space=2.0&amp;FingerJoint_width=1.0&amp;Stackable_angle=60&amp;Stackable_bottom_stabilizers=0.0&amp;Stackable_height=2.0&amp;Stackable_holedistance=1.0&amp;Stackable_width=4.0&amp;x=45&amp;y=50&amp;h=20&amp;bottom_edge=h&amp;outside=0&amp;front_height=10&amp;angle=40&amp;removable_backwall=0&amp;removable_panel=0&amp;glued_panel=0&amp;glued_panel=1&amp;thickness=3.0&amp;format=svg&amp;tabs=5&amp;qr_code=0&amp;debug=0&amp;labels=0&amp;reference=100&amp;inner_corners=loop&amp;burn=0.1&amp;language=en&amp;render=2</dc:source>
<dc:source>http://www.festi.info/boxes.py/Console2?x=45&amp;y=50&amp;h=20&amp;bottom_edge=h&amp;front_height=10&amp;angle=40&amp;removable_backwall=0&amp;removable_panel=0&amp;tabs=5&amp;labels=0</dc:source>
<dc:description>Console with slanted panel and service hatches


This box is designed as a housing for electronic projects. It has hatches that can be re-opened with simple tools. It intentionally cannot be opened with bare hands - if build with thin enough material.

#### Caution
There is a chance that the latches of the back wall or the back wall itself interfere with the front panel or it's mounting frame/lips. The generator does not check for this. So depending on the variant chosen you might need to make the box deeper (increase y parameter) or the panel angle steeper (increase angle parameter) until there is enough room.

It's also possible that the frame of the panel interferes with the floor if the hi parameter is too small.

#### Assembly instructions
The main body is easy to assemble by starting with the floor and then adding the four walls and (if present) the top piece.

If the back wall is removable you need to add the lips and latches. The U-shaped clamps holding the latches in place need to be clued in place without also gluing the latches themselves. Make sure the springs on the latches point inwards and the angled ends point to the side walls as shown here:

![Back wall details](static/samples/Console2-backwall-detail.jpg)

If the panel is removable you need to add the springs with the tabs to the side lips. This photo shows the variant which has the panel glued to the frame:

![Back wall details](static/samples/Console2-panel-detail.jpg)

If space is tight you may consider not gluing the cross pieces in place and remove them after the glue-up. This may prevent the latches of the back wall and the panel from interfering with each other.

The variant using finger joints only has the two side lips without the cross bars.

#### Re-Opening

The latches at the back wall lock in place when closed. To open them they need to be pressed in and can then be moved aside.

To remove the panel you have to press in the four tabs at the side. It is easiest to push them in and then pull the panel up a little bit so the tabs stay in.


Created with Boxes.py (https://festi.info/boxes.py)
Command line: boxes Console2 --FingerJoint_angle=90.0 --FingerJoint_style=rectangular --FingerJoint_surroundingspaces=0.5 --FingerJoint_bottom_lip=0.0 --FingerJoint_edge_width=1.0 --FingerJoint_extra_length=0.0 --FingerJoint_finger=2.0 --FingerJoint_play=0.0 --FingerJoint_space=2.0 --FingerJoint_width=1.0 --Stackable_angle=60 --Stackable_bottom_stabilizers=0.0 --Stackable_height=2.0 --Stackable_holedistance=1.0 --Stackable_width=4.0 --x=45 --y=50 --h=20 --bottom_edge=h --outside=0 --front_height=10 --angle=40 --removable_backwall=0 --removable_panel=0 --glued_panel=0 --glued_panel=1 --thickness=3.0 --format=svg --tabs=5 --qr_code=0 --debug=0 --labels=0 --reference=100 --inner_corners=loop --burn=0.1
Command line short: boxes Console2 --x=45 --y=50 --h=20 --bottom_edge=h --front_height=10 --angle=40 --removable_backwall=0 --removable_panel=0 --tabs=5 --labels=0
Url: http://www.festi.info/boxes.py/Console2?FingerJoint_angle=90.0&amp;FingerJoint_style=rectangular&amp;FingerJoint_surroundingspaces=0.5&amp;FingerJoint_bottom_lip=0.0&amp;FingerJoint_edge_width=1.0&amp;FingerJoint_extra_length=0.0&amp;FingerJoint_finger=2.0&amp;FingerJoint_play=0.0&amp;FingerJoint_space=2.0&amp;FingerJoint_width=1.0&amp;Stackable_angle=60&amp;Stackable_bottom_stabilizers=0.0&amp;Stackable_height=2.0&amp;Stackable_holedistance=1.0&amp;Stackable_width=4.0&amp;x=45&amp;y=50&amp;h=20&amp;bottom_edge=h&amp;outside=0&amp;front_height=10&amp;angle=40&amp;removable_backwall=0&amp;removable_panel=0&amp;glued_panel=0&amp;glued_panel=1&amp;thickness=3.0&amp;format=svg&amp;tabs=5&amp;qr_code=0&amp;debug=0&amp;labels=0&amp;reference=100&amp;inner_corners=loop&amp;burn=0.1&amp;language=en&amp;render=2
Url short: http://www.festi.info/boxes.py/Console2?x=45&amp;y=50&amp;h=20&amp;bottom_edge=h&amp;front_height=10&amp;angle=40&amp;removable_backwall=0&amp;removable_panel=0&amp;tabs=5&amp;labels=0
SettingsUrl: http://www.festi.info/boxes.py/Console2?FingerJoint_angle=90.0&amp;FingerJoint_style=rectangular&amp;FingerJoint_surroundingspaces=0.5&amp;FingerJoint_bottom_lip=0.0&amp;FingerJoint_edge_width=1.0&amp;FingerJoint_extra_length=0.0&amp;FingerJoint_finger=2.0&amp;FingerJoint_play=0.0&amp;FingerJoint_space=2.0&amp;FingerJoint_width=1.0&amp;Stackable_angle=60&amp;Stackable_bottom_stabilizers=0.0&amp;Stackable_height=2.0&amp;Stackable_holedistance=1.0&amp;Stackable_width=4.0&amp;x=45&amp;y=50&amp;h=20&amp;bottom_edge=h&amp;outside=0&amp;front_height=10&amp;angle=40&amp;removable_backwall=0&amp;removable_panel=0&amp;glued_panel=0&amp;glued_panel=1&amp;thickness=3.0&amp;format=svg&amp;tabs=5&amp;qr_code=0&amp;debug=0&amp;labels=0&amp;reference=100&amp;inner_corners=loop&amp;burn=0.1&amp;language=en&amp;render=2
SettingsUrl short: http://www.festi.info/boxes.py/Console2?x=45&amp;y=50&amp;h=20&amp;bottom_edge=h&amp;front_height=10&amp;angle=40&amp;removable_backwall=0&amp;removable_panel=0&amp;tabs=5&amp;labels=0
</dc:description>
</cc:Work></rdf:RDF></metadata>
<g id="p-0" style="fill:none;stroke-linecap:round;stroke-linejoin:round;">
  <path d="M 18.800 72.900 H 118.800 V 62.900 H 18.800 V 72.900 Z" stroke="rgb(0,0,0)" stroke-width="0.20" />
  <text dominant-baseline="hanging" font-size="8px" style="font-family: sans-serif ; font-weight: normal; font-style: normal; fill: rgb(255,0,0)" text-anchor="middle" transform="matrix( 1.000 0.000 0.000 1.000 68.800 63.900 )">100.00mm, burn:0.10mm</text>
</g>
<g id="p-1" style="fill:none;stroke-linecap:round;stroke-linejoin:round;">
  <path d="M 28.800 58.000 H 25.900 C 25.800 58.000 25.900 58.100 25.900 58.000 V 55.200 C 25.900 55.100 25.800 55.200 25.900 55.200 H 31.700 C 31.800 55.200 31.700 55.100 31.700 55.200 V 58.000 C 31.700 58.100 31.800 58.000 31.700 58.000 H 28.800 Z" stroke="rgb(0,0,255)" stroke-width="0.20" />
  <path d="M 40.800 58.000 H 37.900 C 37.800 58.000 37.900 58.100 37.900 58.000 V 55.200 C 37.900 55.100 37.800 55.200 37.900 55.200 H 43.700 C 43.800 55.200 43.700 55.100 43.700 55.200 V 58.000 C 43.700 58.100 43.800 58.000 43.700 58.000 H 40.800 Z" stroke="rgb(0,0,255)" stroke-width="0.20" />
  <path d="M 52.800 58.000 H 49.900 C 49.800 58.000 49.900 58.100 49.900 58.000 V 55.200 C 49.900 55.100 49.800 55.200 49.900 55.200 H 55.700 C 55.800 55.200 55.700 55.100 55.700 55.200 V 58.000 C 55.700 58.100 55.800 58.000 55.700 58.000 H 52.800 Z" stroke="rgb(0,0,255)" stroke-width="0.20" />
  <path d="M 64.800 58.000 H 61.900 C 61.800 58.000 61.900 58.100 61.900 58.000 V 55.200 C 61.900 55.100 61.800 55.200 61.900 55.200 H 67.700 C 67.800 55.200 67.700 55.100 67.700 55.200 V 58.000 C 67.700 58.100 67.800 58.000 67.700 58.000 H 64.800 Z" stroke="rgb(0,0,255)" stroke-width="0.20" />
  <path d="M 21.800 61.200 H 44.300 M 49.300 61.200 H 71.800 C 71.855 61.200 71.900 61.155 71.900 61.100 M 71.900 57.249 C 71.900 57.304 71.855 57.349 71.800 57.349 H 74.800 C 74.855 57.349 74.900 57.304 74.900 57.249 V 51.249 C 74.900 51.194 74.855 51.149 74.800 51.149 H 71.800 C 71.855 51.149 71.900 51.194 71.900 51.249 M 71.900 47.398 V 45.100 C 71.900 45.070 71.887 45.042 71.864 45.023 L 59.947 35.023 C 59.929 35.008 59.906 35.000 59.882 35.000 H 57.954 M 54.877 35.000 C 54.932 35.000 54.977 35.045 54.977 35.100 V 32.100 C 54.977 32.045 54.932 32.000 54.877 32.000 H 48.877 C 48.822 32.000 48.777 32.045 48.777 32.100 V 35.000 C 48.777 35.100 48.877 35.000 48.777 35.000 H 42.977 C 42.877 35.000 42.977 35.100 42.977 35.000 V 32.100 C 42.977 32.045 42.932 32.000 42.877 32.000 H 36.877 C 36.822 32.000 36.777 32.045 36.777 32.100 V 35.000 C 36.777 35.100 36.877 35.000 36.777 35.000 H 30.977 C 30.877 35.000 30.977 35.100 30.977 35.000 V 32.100 C 30.977 32.045 30.932 32.000 30.877 32.000 H 24.877 C 24.822 32.000 24.777 32.045 24.777 32.100 V 35.100 C 24.777 35.045 24.822 35.000 24.877 35.000 M 21.800 35.000 C 21.745 35.000 21.700 35.045 21.700 35.100 M 21.700 39.100 C 21.700 39.045 21.745 39.000 21.800 39.000 H 18.800 C 18.745 39.000 18.700 39.045 18.700 39.100 V 45.100 C 18.700 45.155 18.745 45.200 18.800 45.200 H 21.700 C 21.800 45.200 21.700 45.100 21.700 45.200 V 51.000 C 21.700 51.100 21.800 51.000 21.700 51.000 H 18.800 C 18.745 51.000 18.700 51.045 18.700 51.100 V 57.100 C 18.700 57.155 18.745 57.200 18.800 57.200 H 21.800 C 21.745 57.200 21.700 57.155 21.700 57.100 M 21.700 61.100 C 21.700 61.155 21.745 61.200 21.800 61.200" stroke="rgb(0,0,0)" stroke-width="0.20" />
</g>
<g id="p-2" style="fill:none;stroke-linecap:round;stroke-linejoin:round;">
  <path d="M 86.500 58.000 H 83.600 C 83.500 58.000 83.600 58.100 83.600 58.000 V 55.200 C 83.600 55.100 83.500 55.200 83.600 55.200 H 89.400 C 89.500 55.200 89.400 55.100 89.400 55.200 V 58.000 C 89.400 58.100 89.500 58.000 89.400 58.000 H 86.500 Z" stroke="rgb(0,0,255)" stroke-width="0.20" />
  <path d="M 98.500 58.000 H 95.600 C 95.500 58.000 95.600 58.100 95.600 58.000 V 55.200 C 95.600 55.100 95.500 55.200 95.600 55.200 H 101.400 C 101.500 55.200 101.400 55.100 101.400 55.200 V 58.000 C 101.400 58.100 101.500 58.000 101.400 58.000 H 98.500 Z" stroke="rgb(0,0,255)" stroke-width="0.20" />
  <path d="M 110.500 58.000 H 107.600 C 107.500 58.000 107.600 58.100 107.600 58.000 V 55.200 C 107.600 55.100 107.500 55.200 107.600 55.200 H 113.400 C 113.500 55.200 113.400 55.100 113.400 55.200 V 58.000 C 113.400 58.100 113.500 58.000 113.400 58.000 H 110.500 Z" stroke="rgb(0,0,255)" stroke-width="0.20" />
  <path d="M 122.500 58.000 H 119.600 C 119.500 58.000 119.600 58.100 119.600 58.000 V 55.200 C 119.600 55.100 119.500 55.200 119.600 55.200 H 125.400 C 125.500 55.200 125.400 55.100 125.400 55.200 V 58.000 C 125.400 58.100 125.500 58.000 125.400 58.000 H 122.500 Z" stroke="rgb(0,0,255)" stroke-width="0.20" />
  <path d="M 79.500 61.200 H 102.000 M 107.000 61.200 H 129.500 C 129.555 61.200 129.600 61.155 129.600 61.100 M 129.600 57.249 C 129.600 57.304 129.555 57.349 129.500 57.349 H 132.500 C 132.555 57.349 132.600 57.304 132.600 57.249 V 51.249 C 132.600 51.194 132.555 51.149 132.500 51.149 H 129.500 C 129.555 51.149 129.600 51.194 129.600 51.249 M 129.600 47.398 V 45.100 C 129.600 45.070 129.587 45.042 129.564 45.023 L 117.647 35.023 C 117.629 35.008 117.606 35.000 117.582 35.000 H 115.654 M 112.577 35.000 C 112.632 35.000 112.677 35.045 112.677 35.100 V 32.100 C 112.677 32.045 112.632 32.000 112.577 32.000 H 106.577 C 106.522 32.000 106.477 32.045 106.477 32.100 V 35.000 C 106.477 35.100 106.577 35.000 106.477 35.000 H 100.677 C 100.577 35.000 100.677 35.100 100.677 35.000 V 32.100 C 100.677 32.045 100.632 32.000 100.577 32.000 H 94.577 C 94.522 32.000 94.477 32.045 94.477 32.100 V 35.000 C 94.477 35.100 94.577 35.000 94.477 35.000 H 88.677 C 88.577 35.000 88.677 35.100 88.677 35.000 V 32.100 C 88.677 32.045 88.632 32.000 88.577 32.000 H 82.577 C 82.522 32.000 82.477 32.045 82.477 32.100 V 35.100 C 82.477 35.045 82.522 35.000 82.577 35.000 M 79.500 35.000 C 79.445 35.000 79.400 35.045 79.400 35.100 M 79.400 39.100 C 79.400 39.045 79.445 39.000 79.500 39.000 H 76.500 C 76.445 39.000 76.400 39.045 76.400 39.100 V 45.100 C 76.400 45.155 76.445 45.200 76.500 45.200 H 79.400 C 79.500 45.200 79.400 45.100 79.400 45.200 V 51.000 C 79.400 51.100 79.500 51.000 79.400 51.000 H 76.500 C 76.445 51.000 76.400 51.045 76.400 51.100 V 57.100 C 76.400 57.155 76.445 57.200 76.500 57.200 H 79.500 C 79.445 57.200 79.400 57.155 79.400 57.100 M 79.400 61.100 C 79.400 61.155 79.445 61.200 79.500 61.200" stroke="rgb(0,0,0)" stroke-width="0.20" />
</g>
<g id="p-3" style="fill:none;stroke-linecap:round;stroke-linejoin:round;">
  <path d="M 141.200 58.200 C 141.145 58.200 141.100 58.155 141.100 58.100 V 61.100 C 141.100 61.155 141.145 61.200 141.200 61.200 H 147.200 C 147.255 61.200 147.300 61.155 147.300 61.100 V 58.200 C 147.300 58.100 147.200 58.200 147.300 58.200 H 153.100 C 153.200 58.200 153.100 58.100 153.100 58.200 V 61.100 C 153.100 61.155 153.145 61.200 153.200 61.200 H 159.200 C 159.255 61.200 159.300 61.155 159.300 61.100 V 58.200 C 159.300 58.100 159.200 58.200 159.300 58.200 H 165.100 C 165.200 58.200 165.100 58.100 165.100 58.200 V 61.100 C 165.100 61.155 165.145 61.200 165.200 61.200 H 171.200 C 171.255 61.200 171.300 61.155 171.300 61.100 V 58.200 C 171.300 58.100 171.200 58.200 171.300 58.200 H 177.100 C 177.200 58.200 177.100 58.100 177.100 58.200 V 61.100 C 177.100 61.155 177.145 61.200 177.200 61.200 H 183.200 C 183.255 61.200 183.300 61.155 183.300 61.100 V 58.100 C 183.300 58.155 183.255 58.200 183.200 58.200 M 187.200 58.200 C 187.255 58.200 187.300 58.155 187.300 58.100 M 187.300 56.600 C 187.300 56.655 187.255 56.700 187.200 56.700 H 190.200 C 190.255 56.700 190.300 56.655 190.300 56.600 V 50.600 C 190.300 50.545 190.255 50.500 190.200 50.500 H 187.300 C 187.200 50.500 187.300 50.600 187.300 50.500 V 44.700 C 187.300 44.600 187.200 44.700 187.300 44.700 H 190.200 C 190.255 44.700 190.300 44.655 190.300 44.600 V 38.600 C 190.300 38.545 190.255 38.500 190.200 38.500 H 187.300 C 187.200 38.500 187.300 38.600 187.300 38.500 V 32.700 C 187.300 32.600 187.200 32.700 187.300 32.700 H 190.200 C 190.255 32.700 190.300 32.655 190.300 32.600 V 26.600 C 190.300 26.545 190.255 26.500 190.200 26.500 H 187.300 C 187.200 26.500 187.300 26.600 187.300 26.500 V 20.700 C 187.300 20.600 187.200 20.700 187.300 20.700 H 190.200 C 190.255 20.700 190.300 20.655 190.300 20.600 V 14.600 C 190.300 14.545 190.255 14.500 190.200 14.500 H 187.200 C 187.255 14.500 187.300 14.545 187.300 14.600 M 187.300 13.100 C 187.300 13.045 187.255 13.000 187.200 13.000 M 183.200 13.000 C 183.255 13.000 183.300 13.045 183.300 13.100 V 10.100 C 183.300 10.045 183.255 10.000 183.200 10.000 H 177.200 C 177.145 10.000 177.100 10.045 177.100 10.100 V 13.000 C 177.100 13.100 177.200 13.000 177.100 13.000 H 171.300 C 171.200 13.000 171.300 13.100 171.300 13.000 V 10.100 C 171.300 10.045 171.255 10.000 171.200 10.000 H 165.200 C 165.145 10.000 165.100 10.045 165.100 10.100 V 13.000 C 165.100 13.100 165.200 13.000 165.100 13.000 H 159.300 C 159.200 13.000 159.300 13.100 159.300 13.000 V 10.100 C 159.300 10.045 159.255 10.000 159.200 10.000 H 153.200 C 153.145 10.000 153.100 10.045 153.100 10.100 V 13.000 C 153.100 13.100 153.200 13.000 153.100 13.000 H 147.300 C 147.200 13.000 147.300 13.100 147.300 13.000 V 10.100 C 147.300 10.045 147.255 10.000 147.200 10.000 H 141.200 C 141.145 10.000 141.100 10.045 141.100 10.100 V 13.100 C 141.100 13.045 141.145 13.000 141.200 13.000 M 137.200 13.000 C 137.145 13.000 137.100 13.045 137.100 13.100 M 137.100 14.600 C 137.100 14.545 137.145 14.500 137.200 14.500 H 134.200 C 134.145 14.500 134.100 14.545 134.100 14.600 V 20.600 C 134.100 20.655 134.145 20.700 134.200 20.700 H 137.100 C 137.200 20.700 137.100 20.600 137.100 20.700 V 26.500 C 137.100 26.600 137.200 26.500 137.100 26.500 H 134.200 C 134.145 26.500 134.100 26.545 134.100 26.600 V 32.600 C 134.100 32.655 134.145 32.700 134.200 32.700 H 137.100 C 137.200 32.700 137.100 32.600 137.100 32.700 V 38.500 C 137.100 38.600 137.200 38.500 137.100 38.500 H 134.200 C 134.145 38.500 134.100 38.545 134.100 38.600 V 44.600 C 134.100 44.655 134.145 44.700 134.200 44.700 H 137.100 C 137.200 44.700 137.100 44.600 137.100 44.700 V 50.500 C 137.100 50.600 137.200 50.500 137.100 50.500 H 134.200 C 134.145 50.500 134.100 50.545 134.100 50.600 V 56.600 C 134.100 56.655 134.145 56.700 134.200 56.700 H 137.200 C 137.145 56.700 137.100 56.655 137.100 56.600 M 137.100 58.100 C 137.100 58.155 137.145 58.200 137.200 58.200" stroke="rgb(0,0,0)" stroke-width="0.20" />
</g>
<g id="p-4" style="fill:none;stroke-linecap:round;stroke-linejoin:round;">
  <path d="M 195.751 61.200 C 195.806 61.200 195.851 61.155 195.851 61.100 V 58.200 C 195.851 58.100 195.751 58.200 195.851 58.200 H 201.651 C 201.751 58.200 201.651 58.100 201.651 58.200 V 61.100 C 201.651 61.155 201.696 61.200 201.751 61.200 M 205.602 61.200 C 205.657 61.200 205.702 61.155 205.702 61.100 V 58.100 V 38.100 M 205.702 33.100 V 13.100 V 10.100 C 205.702 10.045 205.657 10.000 205.602 10.000 M 201.751 10.000 C 201.696 10.000 201.651 10.045 201.651 10.100 V 13.000 C 201.651 13.100 201.751 13.000 201.651 13.000 H 195.851 C 195.751 13.000 195.851 13.100 195.851 13.000 V 10.100 C 195.851 10.045 195.806 10.000 195.751 10.000 M 191.900 10.000 C 191.845 10.000 191.800 10.045 191.800 10.100 V 13.100 V 33.100 M 191.800 38.100 V 58.100 V 61.100 C 191.800 61.155 191.845 61.200 191.900 61.200" stroke="rgb(0,0,0)" stroke-width="0.20" />
  <path d="M 195.000 17.600 V 14.700 C 195.000 14.600 194.900 14.700 195.000 14.700 H 197.800 C 197.900 14.700 197.800 14.600 197.800 14.700 V 20.500 C 197.800 20.600 197.900 20.500 197.800 20.500 H 195.000 C 194.900 20.500 195.000 20.600 195.000 20.500 V 17.600 Z" stroke="rgb(0,0,255)" stroke-width="0.20" />
  <path d="M 195.000 29.600 V 26.700 C 195.000 26.600 194.900 26.700 195.000 26.700 H 197.800 C 197.900 26.700 197.800 26.600 197.800 26.700 V 32.500 C 197.800 32.600 197.900 32.500 197.800 32.500 H 195.000 C 194.900 32.500 195.000 32.600 195.000 32.500 V 29.600 Z" stroke="rgb(0,0,255)" stroke-width="0.20" />
  <path d="M 195.000 41.600 V 38.700 C 195.000 38.600 194.900 38.700 195.000 38.700 H 197.800 C 197.900 38.700 197.800 38.600 197.800 38.700 V 44.500 C 197.800 44.600 197.900 44.500 197.800 44.500 H 195.000 C 194.900 44.500 195.000 44.600 195.000 44.500 V 41.600 Z" stroke="rgb(0,0,255)" stroke-width="0.20" />
  <path d="M 195.000 53.600 V 50.700 C 195.000 50.600 194.900 50.700 195.000 50.700 H 197.800 C 197.900 50.700 197.800 50.600 197.800 50.700 V 56.500 C 197.800 56.600 197.900 56.500 197.800 56.500 H 195.000 C 194.900 56.500 195.000 56.600 195.000 56.500 V 53.600 Z" stroke="rgb(0,0,255)" stroke-width="0.20" />
</g>
<g id="p-5" style="fill:none;stroke-linecap:round;stroke-linejoin:round;">
  <path d="M 210.302 61.200 H 215.580 M 220.580 61.200 H 225.859 H 228.859 C 228.914 61.200 228.959 61.155 228.959 61.100 V 58.100 V 38.100 M 228.959 33.100 V 13.100 V 10.100 C 228.959 10.045 228.914 10.000 228.859 10.000 H 225.859 H 220.580 M 215.580 10.000 H 210.302 H 207.302 C 207.247 10.000 207.202 10.045 207.202 10.100 V 13.100 V 33.100 M 207.202 38.100 V 58.100 V 61.100 C 207.202 61.155 207.247 61.200 207.302 61.200 H 210.302" stroke="rgb(0,0,0)" stroke-width="0.20" />
</g>
<g id="p-6" style="fill:none;stroke-linecap:round;stroke-linejoin:round;">
  <path d="M 233.636 61.200 C 233.691 61.200 233.736 61.155 233.736 61.100 V 58.200 C 233.736 58.100 233.636 58.200 233.736 58.200 H 239.536 C 239.636 58.200 239.536 58.100 239.536 58.200 V 61.100 C 239.536 61.155 239.581 61.200 239.636 61.200 H 245.636 C 245.691 61.200 245.736 61.155 245.736 61.100 V 58.200 C 245.736 58.100 245.636 58.200 245.736 58.200 H 251.536 C 251.636 58.200 251.536 58.100 251.536 58.200 V 61.100 C 251.536 61.155 251.581 61.200 251.636 61.200 H 257.636 C 257.691 61.200 257.736 61.155 257.736 61.100 V 58.200 C 257.736 58.100 257.636 58.200 257.736 58.200 H 263.536 C 263.636 58.200 263.536 58.100 263.536 58.200 V 61.100 C 263.536 61.155 263.581 61.200 263.636 61.200 M 266.713 61.200 H 269.713 C 269.768 61.200 269.813 61.155 269.813 61.100 V 58.100 V 38.100 M 269.813 33.100 V 13.100 V 10.100 C 269.813 10.045 269.768 10.000 269.713 10.000 H 266.713 M 263.636 10.000 C 263.581 10.000 263.536 10.045 263.536 10.100 V 13.000 C 263.536 13.100 263.636 13.000 263.536 13.000 H 257.736 C 257.636 13.000 257.736 13.100 257.736 13.000 V 10.100 C 257.736 10.045 257.691 10.000 257.636 10.000 H 251.636 C 251.581 10.000 251.536 10.045 251.536 10.100 V 13.000 C 251.536 13.100 251.636 13.000 251.536 13.000 H 245.736 C 245.636 13.000 245.736 13.100 245.736 13.000 V 10.100 C 245.736 10.045 245.691 10.000 245.636 10.000 H 239.636 C 239.581 10.000 239.536 10.045 239.536 10.100 V 13.000 C 239.536 13.100 239.636 13.000 239.536 13.000 H 233.736 C 233.636 13.000 233.736 13.100 233.736 13.000 V 10.100 C 233.736 10.045 233.691 10.000 233.636 10.000 M 230.559 10.000 C 230.504 10.000 230.459 10.045 230.459 10.100 V 13.100 V 33.100 M 230.459 38.100 V 58.100 V 61.100 C 230.459 61.155 230.504 61.200 230.559 61.200" stroke="rgb(0,0,0)" stroke-width="0.20" />
</g>
<g id="p-7" style="fill:none;stroke-linecap:round;stroke-linejoin:round;">
  <path d="M 275.413 61.200 C 275.468 61.200 275.513 61.155 275.513 61.100 V 58.200 C 275.513 58.100 275.413 58.200 275.513 58.200 H 281.313 C 281.413 58.200 281.313 58.100 281.313 58.200 V 61.100 C 281.313 61.155 281.358 61.200 281.413 61.200 H 287.413 C 287.468 61.200 287.513 61.155 287.513 61.100 V 58.200 C 287.513 58.100 287.413 58.200 287.513 58.200 H 293.313 C 293.413 58.200 293.313 58.100 293.313 58.200 V 61.100 C 293.313 61.155 293.358 61.200 293.413 61.200 M 297.413 61.200 C 297.468 61.200 297.513 61.155 297.513 61.100 V 58.100 V 38.100 M 297.513 33.100 V 13.100 V 10.100 C 297.513 10.045 297.468 10.000 297.413 10.000 M 293.413 10.000 C 293.358 10.000 293.313 10.045 293.313 10.100 V 13.000 C 293.313 13.100 293.413 13.000 293.313 13.000 H 287.513 C 287.413 13.000 287.513 13.100 287.513 13.000 V 10.100 C 287.513 10.045 287.468 10.000 287.413 10.000 H 281.413 C 281.358 10.000 281.313 10.045 281.313 10.100 V 13.000 C 281.313 13.100 281.413 13.000 281.313 13.000 H 275.513 C 275.413 13.000 275.513 13.100 275.513 13.000 V 10.100 C 275.513 10.045 275.468 10.000 275.413 10.000 M 271.413 10.000 C 271.358 10.000 271.313 10.045 271.313 10.100 V 13.100 V 33.100 M 271.313 38.100 V 58.100 V 61.100 C 271.313 61.155 271.358 61.200 271.413 61.200" stroke="rgb(0,0,0)" stroke-width="0.20" />
  <path d="M 294.313 53.600 V 56.500 C 294.313 56.600 294.413 56.500 294.313 56.500 H 291.513 C 291.413 56.500 291.513 56.600 291.513 56.500 V 50.700 C 291.513 50.600 291.413 50.700 291.513 50.700 H 294.313 C 294.413 50.700 294.313 50.600 294.313 50.700 V 53.600 Z" stroke="rgb(0,0,255)" stroke-width="0.20" />
  <path d="M 294.313 41.600 V 44.500 C 294.313 44.600 294.413 44.500 294.313 44.500 H 291.513 C 291.413 44.500 291.513 44.600 291.513 44.500 V 38.700 C 291.513 38.600 291.413 38.700 291.513 38.700 H 294.313 C 294.413 38.700 294.313 38.600 294.313 38.700 V 41.600 Z" stroke="rgb(0,0,255)" stroke-width="0.20" />
  <path d="M 294.313 29.600 V 32.500 C 294.313 32.600 294.413 32.500 294.313 32.500 H 291.513 C 291.413 32.500 291.513 32.600 291.513 32.500 V 26.700 C 291.513 26.600 291.413 26.700 291.513 26.700 H 294.313 C 294.413 26.700 294.313 26.600 294.313 26.700 V 29.600 Z" stroke="rgb(0,0,255)" stroke-width="0.20" />
  <path d="M 294.313 17.600 V 20.500 C 294.313 20.600 294.413 20.500 294.313 20.500 H 291.513 C 291.413 20.500 291.513 20.600 291.513 20.500 V 14.700 C 291.513 14.600 291.413 14.700 291.513 14.700 H 294.313 C 294.413 14.700 294.313 14.600 294.313 14.700 V 17.600 Z" stroke="rgb(0,0,255)" stroke-width="0.20" />
</g>
</svg>